<svg width="27" height="27" viewBox="0 0 27 27" fill="none" xmlns="http://www.w3.org/2000/svg">
<path d="M9.87557 8.03168C10.1115 7.79582 10.2987 7.51579 10.4264 7.20757C10.5541 6.89935 10.6198 6.569 10.6198 6.23537C10.6198 5.90175 10.5541 5.57139 10.4264 5.26317C10.2987 4.95496 10.1115 4.67492 9.87557 4.43906L7.18205 1.74427C6.94619 1.50831 6.66615 1.32114 6.35794 1.19343C6.04972 1.06573 5.71936 1 5.38574 1C5.05211 1 4.72176 1.06573 4.41354 1.19343C4.10532 1.32114 3.82528 1.50831 3.58942 1.74427L2.1125 3.22247C1.49271 3.84381 1.10644 4.66009 1.01897 5.53333C0.931509 6.40658 1.14821 7.28325 1.63247 8.01517C5.98193 14.5621 11.5946 20.1748 18.1415 24.5242C18.8735 25.008 19.75 25.2243 20.6229 25.1366C21.4959 25.0489 22.3119 24.6626 22.933 24.0429L24.4112 22.566C24.8873 22.0897 25.1548 21.4438 25.1548 20.7703C25.1548 20.0969 24.8873 19.4509 24.4112 18.9747L21.7176 16.2799C21.4818 16.0439 21.2017 15.8567 20.8935 15.729C20.5853 15.6013 20.255 15.5356 19.9213 15.5356C19.5877 15.5356 19.2574 15.6013 18.9491 15.729C18.6409 15.8567 18.3609 16.0439 18.125 16.2799L17.2284 17.1777C14.2161 14.7 11.4516 11.9355 8.97392 8.92317L9.87557 8.03168Z" stroke="white" stroke-width="2" stroke-linecap="round" stroke-linejoin="round"/>
</svg>
