<svg width="93" height="97" viewBox="0 0 93 97" fill="none" xmlns="http://www.w3.org/2000/svg">
<g clip-path="url(#clip0)">
<path d="M78.691 31.1885H92.8165C92.8165 31.1885 92.8165 34.3526 92.8165 38.2513V80.6279C92.8165 84.5266 92.8165 87.6907 92.8165 87.6907H15.1266C15.1266 87.6907 15.126 84.5266 15.126 80.6279V66.5024" stroke="white" stroke-width="2.24398" stroke-miterlimit="10"/>
<path d="M1 24.1256H78.6906M78.6906 45.3139H92.8161M78.6906 66.5022H1.00064C1.00064 66.5022 1 63.3381 1 59.4394V17.0628C1 13.1641 1.00009 10 1.00009 10H78.6906C78.6906 10 78.6906 13.1641 78.6906 17.0628V59.4394C78.6906 63.3381 78.6906 66.5022 78.6906 66.5022Z" stroke="white" stroke-width="2.24398" stroke-miterlimit="10"/>
</g>
<defs>
<clipPath id="clip0">
<rect width="93" height="97" fill="white"/>
</clipPath>
</defs>
</svg>
