<?xml version="1.0" standalone="no"?>
<!DOCTYPE svg PUBLIC "-//W3C//DTD SVG 20010904//EN"
 "http://www.w3.org/TR/2001/REC-SVG-20010904/DTD/svg10.dtd">
<svg version="1.0" xmlns="http://www.w3.org/2000/svg"
 width="618.000000pt" height="120.000000pt" viewBox="0 0 618.000000 120.000000"
 preserveAspectRatio="xMidYMid meet">

<g transform="translate(0.000000,120.000000) scale(0.100000,-0.100000)"
fill="#000000" stroke="none">
<path d="M141 923 c67 -131 152 -296 189 -368 37 -72 114 -221 170 -333 56
-112 106 -202 111 -200 12 4 590 1131 583 1137 -2 2 -12 -3 -21 -11 -10 -9
-141 -104 -291 -212 l-274 -196 -36 28 c-54 42 -543 392 -548 392 -3 0 50
-107 117 -237z m241 -101 l163 -118 3 -202 c1 -111 -1 -202 -5 -202 -8 0 -336
640 -328 640 2 0 77 -53 167 -118z m466 -202 c-90 -176 -165 -320 -168 -320
-3 0 -3 93 0 206 l5 206 160 114 c88 63 161 114 163 114 2 0 -70 -144 -160
-320z m-231 -402 c-1 -95 -3 -18 -3 172 0 190 2 267 3 173 2 -95 2 -251 0
-345z"/>
<path d="M3910 880 l0 -50 170 0 170 0 0 -347 -1 -348 40 -3 41 -3 0 350 0
351 875 0 875 0 0 50 0 50 -1085 0 -1085 0 0 -50z"/>
<path d="M1336 912 c6 -4 77 -182 159 -395 l148 -388 56 3 56 3 142 375 c79
206 146 383 149 393 5 16 0 18 -53 15 l-58 -3 -114 -305 c-62 -168 -115 -312
-118 -320 -3 -9 -10 1 -18 25 -7 22 -56 155 -110 295 -53 140 -101 267 -107
283 -10 26 -13 27 -76 27 -37 0 -62 -4 -56 -8z"/>
<path d="M2702 463 l3 -328 45 0 45 0 3 328 2 327 -50 0 -50 0 2 -327z"/>
<path d="M5575 777 c-3 -7 -4 -154 -3 -327 l3 -315 48 -3 47 -3 0 159 c0 149
1 161 23 193 47 71 142 88 196 35 26 -26 26 -29 31 -204 l5 -177 45 0 45 0 0
185 c0 179 -1 186 -25 229 -32 57 -78 81 -153 81 -60 0 -104 -16 -144 -53
l-23 -20 0 116 0 117 -45 0 c-28 0 -48 -5 -50 -13z"/>
<path d="M2232 604 c-88 -43 -131 -119 -131 -229 -1 -126 67 -212 198 -251 42
-12 53 -12 109 6 85 25 129 61 160 129 50 109 28 238 -53 309 -78 68 -190 83
-283 36z m197 -81 c69 -52 90 -142 53 -226 -27 -61 -69 -87 -141 -87 -48 0
-57 3 -91 38 -50 49 -66 106 -50 174 14 54 63 113 102 121 40 9 100 -1 127
-20z"/>
<path d="M3031 608 c-83 -41 -127 -136 -119 -256 9 -117 63 -190 165 -222 58
-18 66 -18 115 -4 93 28 147 73 163 137 7 26 5 27 -29 27 -30 0 -44 -8 -74
-39 -82 -86 -221 -52 -248 62 l-6 27 182 0 183 0 -5 68 c-10 143 -90 222 -225
222 -39 0 -72 -7 -102 -22z m184 -80 c15 -12 34 -36 41 -54 27 -65 28 -64
-121 -64 -74 0 -135 3 -135 8 0 32 26 85 51 106 41 35 123 37 164 4z"/>
<path d="M3645 616 c-16 -7 -39 -23 -49 -35 -26 -29 -36 -26 -36 9 0 29 -2 30
-45 30 l-45 0 2 -242 3 -243 45 0 45 0 5 165 c6 190 12 208 87 236 41 16 50
16 87 3 67 -23 76 -52 76 -247 l0 -163 46 3 46 3 -1 183 c-1 100 -6 195 -12
210 -14 37 -48 72 -86 88 -41 18 -129 17 -168 0z"/>
<path d="M4625 612 c-75 -36 -117 -101 -130 -199 -14 -104 34 -221 106 -259
70 -36 121 -45 171 -29 88 26 129 57 161 121 19 37 15 44 -30 44 -26 0 -41 -8
-64 -35 -76 -86 -208 -65 -243 40 l-14 40 181 5 182 5 -2 59 c-3 79 -40 154
-95 192 -54 38 -161 45 -223 16z m164 -77 c30 -15 61 -68 61 -104 0 -20 -5
-21 -134 -21 l-134 0 8 34 c9 42 32 76 62 93 31 17 103 16 137 -2z"/>
<path d="M5155 611 c-91 -41 -141 -136 -133 -253 8 -123 63 -197 171 -231 50
-16 56 -16 116 3 67 20 120 61 147 112 24 47 19 58 -28 58 -37 0 -45 -4 -60
-29 -40 -71 -139 -86 -201 -31 -85 74 -69 248 27 294 66 31 139 10 177 -50 18
-30 26 -34 61 -34 40 0 40 0 34 32 -9 46 -54 99 -106 126 -56 28 -147 30 -205
3z"/>
</g>
</svg>
